<svg width="155" height="39" viewBox="0 0 155 39" fill="none" xmlns="http://www.w3.org/2000/svg">
    <path
        d="M3.65625 24.375C3.65625 26.3144 4.42667 28.1744 5.79803 29.5457C7.16939 30.9171 9.02936 31.6875 10.9688 31.6875H29.25C30.6765 31.689 32.0583 31.1901 33.1547 30.2776C34.2511 29.3651 34.9927 28.0969 35.2502 26.6939C35.5077 25.2908 35.2649 23.8419 34.564 22.5995C33.8631 21.3571 32.7485 20.4 31.4145 19.8949C31.716 19.0373 31.7718 18.1124 31.5754 17.2248C31.379 16.3371 30.9384 15.5221 30.3032 14.8717C29.668 14.2214 28.8636 13.7615 27.9809 13.5442C27.0982 13.3269 26.1723 13.3607 25.3078 13.6419C24.7486 11.4969 23.3765 9.65379 21.4821 8.50283C19.5877 7.35187 17.3197 6.98344 15.1583 7.47557C12.997 7.96769 11.1121 9.28172 9.90272 11.1394C8.69336 12.9971 8.25451 15.2525 8.67913 17.4281C7.21757 17.9105 5.94538 18.8415 5.04358 20.0888C4.14178 21.336 3.65631 22.8359 3.65625 24.375Z"
        fill="#CAD2C5" />
    <path
        d="M55.328 31.34C53.6853 31.34 52.1707 31.052 50.784 30.476C49.4187 29.8786 48.224 29.0466 47.2 27.98C46.176 26.9133 45.3867 25.6546 44.832 24.204C44.2773 22.7533 44 21.164 44 19.436C44 17.708 44.2773 16.1293 44.832 14.7C45.3867 13.2706 46.1653 12.0333 47.168 10.988C48.192 9.92131 49.3867 9.09997 50.752 8.52397C52.1387 7.94797 53.664 7.65997 55.328 7.65997C57.1627 7.65997 58.816 8.02264 60.288 8.74797C61.76 9.47331 62.9653 10.4973 63.904 11.82C64.864 13.1213 65.4507 14.6573 65.664 16.428H61.568C61.312 14.7 60.6187 13.3773 59.488 12.46C58.3573 11.5213 56.9813 11.052 55.36 11.052C53.9307 11.052 52.6827 11.3933 51.616 12.076C50.5493 12.7586 49.7173 13.7293 49.12 14.988C48.5227 16.2253 48.224 17.6973 48.224 19.404C48.224 21.1533 48.5227 22.668 49.12 23.948C49.7173 25.2066 50.56 26.188 51.648 26.892C52.736 27.596 53.984 27.948 55.392 27.948C56.9707 27.948 58.3253 27.4893 59.456 26.572C60.5867 25.6333 61.3013 24.3106 61.6 22.604H65.728C65.472 24.3533 64.864 25.8893 63.904 27.212C62.9653 28.5346 61.76 29.5586 60.288 30.284C58.816 30.988 57.1627 31.34 55.328 31.34Z"
        fill="#CAD2C5" />
    <path d="M68.7062 31.02V7.97997H72.8662V31.02H68.7062ZM70.6903 31.02V27.724H84.1943V31.02H70.6903Z"
        fill="#CAD2C5" />
    <path
        d="M96.3325 31.34C94.6685 31.34 93.1325 31.052 91.7245 30.476C90.3165 29.9 89.0898 29.0786 88.0445 28.012C87.0205 26.9453 86.2205 25.6866 85.6445 24.236C85.0898 22.764 84.8125 21.1533 84.8125 19.404C84.8125 17.0786 85.3032 15.0413 86.2845 13.292C87.2658 11.5213 88.6205 10.1453 90.3485 9.16397C92.0978 8.16131 94.0818 7.65997 96.3005 7.65997C98.5618 7.65997 100.556 8.16131 102.285 9.16397C104.034 10.1453 105.399 11.5213 106.381 13.292C107.362 15.0626 107.853 17.1106 107.853 19.436C107.853 21.1853 107.565 22.7853 106.989 24.236C106.434 25.6866 105.634 26.9453 104.589 28.012C103.565 29.0786 102.348 29.9 100.94 30.476C99.5325 31.052 97.9965 31.34 96.3325 31.34ZM96.3005 27.948C97.7512 27.948 99.0205 27.5853 100.109 26.86C101.218 26.1346 102.082 25.132 102.701 23.852C103.319 22.5506 103.629 21.0573 103.629 19.372C103.629 17.708 103.319 16.2573 102.701 15.02C102.103 13.7613 101.25 12.7906 100.141 12.108C99.0525 11.404 97.7725 11.052 96.3005 11.052C94.8498 11.052 93.5698 11.404 92.4605 12.108C91.3725 12.7906 90.5298 13.7506 89.9325 14.988C89.3352 16.2253 89.0365 17.6866 89.0365 19.372C89.0365 21.0786 89.3352 22.572 89.9325 23.852C90.5512 25.132 91.4045 26.1346 92.4925 26.86C93.6018 27.5853 94.8712 27.948 96.3005 27.948Z"
        fill="#CAD2C5" />
    <path
        d="M120.298 31.34C117.183 31.34 114.826 30.4546 113.226 28.684C111.626 26.9133 110.826 24.3746 110.826 21.068V7.97997H114.986V21.676C114.986 23.788 115.455 25.3666 116.394 26.412C117.333 27.436 118.645 27.948 120.33 27.948C122.015 27.948 123.327 27.436 124.266 26.412C125.205 25.3666 125.674 23.7986 125.674 21.708V7.97997H129.834V21.1C129.834 24.3853 129.023 26.9133 127.402 28.684C125.802 30.4546 123.434 31.34 120.298 31.34Z"
        fill="#CAD2C5" />
    <path
        d="M136.109 31.02V27.692H142.061C143.811 27.692 145.304 27.34 146.541 26.636C147.779 25.932 148.717 24.9506 149.357 23.692C150.019 22.4333 150.349 20.9933 150.349 19.372C150.349 17.772 150.019 16.364 149.357 15.148C148.717 13.932 147.779 12.9933 146.541 12.332C145.325 11.6493 143.832 11.308 142.061 11.308H136.173V7.97997H142.061C144.579 7.97997 146.776 8.44931 148.653 9.38797C150.531 10.3266 151.981 11.66 153.005 13.388C154.051 15.0946 154.573 17.1106 154.573 19.436C154.573 21.7613 154.051 23.7986 153.005 25.548C151.96 27.276 150.499 28.62 148.621 29.58C146.765 30.54 144.589 31.02 142.093 31.02H136.109ZM133.581 31.02V7.97997H137.741V31.02H133.581Z"
        fill="#CAD2C5" />
</svg>